<svg width="202" height="46" viewBox="0 0 202 46" fill="none" xmlns="http://www.w3.org/2000/svg">
<path d="M56.4164 41.7286C54.041 35.0257 48.3003 27.9286 37.8089 27.9286C30.0228 27.9286 27.6473 31.5429 26.3276 31.8714C25.4039 32.0686 24.2162 31.4114 24.942 29.8343C25.7338 28.06 29.7588 25.2343 38.1388 24.5114C43.2196 24.1171 45.397 21.0286 43.7474 16.4286L37.6769 0H18.9374L0 45.8686H12.273L27.5154 8.87143L30.2867 16.2314C31.0785 18.5971 30.4846 21.4886 27.8453 23.5257C21.9727 28.1257 22.6325 31.3457 25.5358 34.4343C30.6166 39.9543 40.5802 32.9229 45.0011 44.2257L45.661 46H58L56.4164 41.7286Z" fill="#F5F6F8"/>
<path d="M88.272 12.912H79.872L78.216 16.8H75L82.56 0H85.632L93.216 16.8H89.952L88.272 12.912ZM87.24 10.464L84.072 3.12L80.928 10.464H87.24Z" fill="#F5F6F8"/>
<path d="M115.24 3.984L110.512 16.8H107.632L104.32 7.968L100.96 16.8H98.0803L93.3763 3.984H96.2083L99.5923 13.44L103.12 3.984H105.64L109.096 13.488L112.576 3.984H115.24Z" fill="#F5F6F8"/>
<path d="M129.839 10.464C129.839 10.672 129.823 10.968 129.791 11.352H119.735C119.911 12.296 120.367 13.048 121.103 13.608C121.855 14.152 122.783 14.424 123.887 14.424C125.295 14.424 126.455 13.96 127.367 13.032L128.975 14.88C128.399 15.568 127.671 16.088 126.791 16.44C125.911 16.792 124.919 16.968 123.815 16.968C122.407 16.968 121.167 16.688 120.095 16.128C119.023 15.568 118.191 14.792 117.599 13.8C117.023 12.792 116.735 11.656 116.735 10.392C116.735 9.144 117.015 8.024 117.575 7.032C118.151 6.024 118.943 5.24 119.951 4.68C120.959 4.12 122.095 3.84 123.359 3.84C124.607 3.84 125.719 4.12 126.695 4.68C127.687 5.224 128.455 6 128.999 7.008C129.559 8 129.839 9.152 129.839 10.464ZM123.359 6.24C122.399 6.24 121.583 6.528 120.911 7.104C120.255 7.664 119.855 8.416 119.711 9.36H126.983C126.855 8.432 126.463 7.68 125.807 7.104C125.151 6.528 124.335 6.24 123.359 6.24Z" fill="#F5F6F8"/>
<path d="M137.521 16.968C136.481 16.968 135.465 16.832 134.473 16.56C133.481 16.288 132.689 15.944 132.097 15.528L133.249 13.248C133.825 13.632 134.513 13.944 135.313 14.184C136.129 14.408 136.929 14.52 137.713 14.52C139.505 14.52 140.401 14.048 140.401 13.104C140.401 12.656 140.169 12.344 139.705 12.168C139.257 11.992 138.529 11.824 137.521 11.664C136.465 11.504 135.601 11.32 134.929 11.112C134.273 10.904 133.697 10.544 133.201 10.032C132.721 9.504 132.481 8.776 132.481 7.848C132.481 6.632 132.985 5.664 133.993 4.944C135.017 4.208 136.393 3.84 138.121 3.84C139.001 3.84 139.881 3.944 140.761 4.152C141.641 4.344 142.361 4.608 142.921 4.944L141.769 7.224C140.681 6.584 139.457 6.264 138.097 6.264C137.217 6.264 136.545 6.4 136.081 6.672C135.633 6.928 135.409 7.272 135.409 7.704C135.409 8.184 135.649 8.528 136.129 8.736C136.625 8.928 137.385 9.112 138.409 9.288C139.433 9.448 140.273 9.632 140.929 9.84C141.585 10.048 142.145 10.4 142.609 10.896C143.089 11.392 143.329 12.096 143.329 13.008C143.329 14.208 142.809 15.168 141.769 15.888C140.729 16.608 139.313 16.968 137.521 16.968Z" fill="#F5F6F8"/>
<path d="M152.513 16.968C151.217 16.968 150.049 16.688 149.009 16.128C147.969 15.568 147.153 14.792 146.561 13.8C145.985 12.792 145.697 11.656 145.697 10.392C145.697 9.128 145.985 8 146.561 7.008C147.153 6.016 147.969 5.24 149.009 4.68C150.049 4.12 151.217 3.84 152.513 3.84C153.825 3.84 155.001 4.12 156.041 4.68C157.081 5.24 157.889 6.016 158.465 7.008C159.057 8 159.353 9.128 159.353 10.392C159.353 11.656 159.057 12.792 158.465 13.8C157.889 14.792 157.081 15.568 156.041 16.128C155.001 16.688 153.825 16.968 152.513 16.968ZM152.513 14.4C153.617 14.4 154.529 14.032 155.249 13.296C155.969 12.56 156.329 11.592 156.329 10.392C156.329 9.192 155.969 8.224 155.249 7.488C154.529 6.752 153.617 6.384 152.513 6.384C151.409 6.384 150.497 6.752 149.777 7.488C149.073 8.224 148.721 9.192 148.721 10.392C148.721 11.592 149.073 12.56 149.777 13.296C150.497 14.032 151.409 14.4 152.513 14.4Z" fill="#F5F6F8"/>
<path d="M179.238 3.84C180.854 3.84 182.134 4.312 183.078 5.256C184.022 6.184 184.494 7.584 184.494 9.456V16.8H181.494V9.84C181.494 8.72 181.246 7.88 180.75 7.32C180.254 6.744 179.542 6.456 178.614 6.456C177.606 6.456 176.798 6.792 176.19 7.464C175.582 8.12 175.278 9.064 175.278 10.296V16.8H172.278V9.84C172.278 8.72 172.03 7.88 171.534 7.32C171.038 6.744 170.326 6.456 169.398 6.456C168.374 6.456 167.558 6.784 166.95 7.44C166.358 8.096 166.062 9.048 166.062 10.296V16.8H163.062V3.984H165.918V5.616C166.398 5.04 166.998 4.6 167.718 4.296C168.438 3.992 169.238 3.84 170.118 3.84C171.078 3.84 171.926 4.024 172.662 4.392C173.414 4.744 174.006 5.272 174.438 5.976C174.966 5.304 175.646 4.784 176.478 4.416C177.31 4.032 178.23 3.84 179.238 3.84Z" fill="#F5F6F8"/>
<path d="M201.332 10.464C201.332 10.672 201.316 10.968 201.284 11.352H191.228C191.404 12.296 191.86 13.048 192.596 13.608C193.348 14.152 194.276 14.424 195.38 14.424C196.788 14.424 197.948 13.96 198.86 13.032L200.468 14.88C199.892 15.568 199.164 16.088 198.284 16.44C197.404 16.792 196.412 16.968 195.308 16.968C193.9 16.968 192.66 16.688 191.588 16.128C190.516 15.568 189.684 14.792 189.092 13.8C188.516 12.792 188.228 11.656 188.228 10.392C188.228 9.144 188.508 8.024 189.068 7.032C189.644 6.024 190.436 5.24 191.444 4.68C192.452 4.12 193.588 3.84 194.852 3.84C196.1 3.84 197.212 4.12 198.188 4.68C199.18 5.224 199.948 6 200.492 7.008C201.052 8 201.332 9.152 201.332 10.464ZM194.852 6.24C193.892 6.24 193.076 6.528 192.404 7.104C191.748 7.664 191.348 8.416 191.204 9.36H198.476C198.348 8.432 197.956 7.68 197.3 7.104C196.644 6.528 195.828 6.24 194.852 6.24Z" fill="#F5F6F8"/>
<path d="M89.9282 29V45.8H87.3602L78.0963 34.424V45.8H75.0002V29H77.5682L86.8322 40.376V29H89.9282Z" fill="#F5F6F8"/>
<path d="M107.39 32.984V45.8H104.534V44.168C104.054 44.744 103.454 45.192 102.734 45.512C102.014 45.816 101.238 45.968 100.406 45.968C98.6939 45.968 97.3419 45.496 96.3499 44.552C95.3739 43.592 94.8859 42.176 94.8859 40.304V32.984H97.8859V39.896C97.8859 41.048 98.1419 41.912 98.6539 42.488C99.1819 43.048 99.9259 43.328 100.886 43.328C101.958 43.328 102.806 43 103.43 42.344C104.07 41.672 104.39 40.712 104.39 39.464V32.984H107.39Z" fill="#F5F6F8"/>
<path d="M128.334 32.84C129.95 32.84 131.23 33.312 132.174 34.256C133.118 35.184 133.59 36.584 133.59 38.456V45.8H130.59V38.84C130.59 37.72 130.342 36.88 129.846 36.32C129.35 35.744 128.638 35.456 127.71 35.456C126.702 35.456 125.894 35.792 125.286 36.464C124.678 37.12 124.374 38.064 124.374 39.296V45.8H121.374V38.84C121.374 37.72 121.126 36.88 120.63 36.32C120.134 35.744 119.422 35.456 118.494 35.456C117.47 35.456 116.654 35.784 116.046 36.44C115.454 37.096 115.158 38.048 115.158 39.296V45.8H112.158V32.984H115.014V34.616C115.494 34.04 116.094 33.6 116.814 33.296C117.534 32.992 118.334 32.84 119.214 32.84C120.174 32.84 121.022 33.024 121.758 33.392C122.51 33.744 123.102 34.272 123.534 34.976C124.062 34.304 124.742 33.784 125.574 33.416C126.406 33.032 127.326 32.84 128.334 32.84Z" fill="#F5F6F8"/>
<path d="M145.367 32.84C146.615 32.84 147.727 33.112 148.703 33.656C149.695 34.2 150.471 34.968 151.031 35.96C151.591 36.952 151.871 38.096 151.871 39.392C151.871 40.688 151.591 41.84 151.031 42.848C150.471 43.84 149.695 44.608 148.703 45.152C147.727 45.696 146.615 45.968 145.367 45.968C144.487 45.968 143.679 45.816 142.943 45.512C142.223 45.208 141.615 44.752 141.119 44.144V45.8H138.263V27.992H141.263V34.544C141.775 33.984 142.375 33.56 143.063 33.272C143.767 32.984 144.535 32.84 145.367 32.84ZM145.031 43.4C146.135 43.4 147.039 43.032 147.743 42.296C148.463 41.56 148.823 40.592 148.823 39.392C148.823 38.192 148.463 37.224 147.743 36.488C147.039 35.752 146.135 35.384 145.031 35.384C144.311 35.384 143.663 35.552 143.087 35.888C142.511 36.208 142.055 36.672 141.719 37.28C141.383 37.888 141.215 38.592 141.215 39.392C141.215 40.192 141.383 40.896 141.719 41.504C142.055 42.112 142.511 42.584 143.087 42.92C143.663 43.24 144.311 43.4 145.031 43.4Z" fill="#F5F6F8"/>
<path d="M167.605 39.464C167.605 39.672 167.589 39.968 167.557 40.352H157.501C157.677 41.296 158.133 42.048 158.869 42.608C159.621 43.152 160.549 43.424 161.653 43.424C163.061 43.424 164.221 42.96 165.133 42.032L166.741 43.88C166.165 44.568 165.437 45.088 164.557 45.44C163.677 45.792 162.685 45.968 161.581 45.968C160.173 45.968 158.933 45.688 157.861 45.128C156.789 44.568 155.957 43.792 155.365 42.8C154.789 41.792 154.501 40.656 154.501 39.392C154.501 38.144 154.781 37.024 155.341 36.032C155.917 35.024 156.709 34.24 157.717 33.68C158.725 33.12 159.861 32.84 161.125 32.84C162.373 32.84 163.485 33.12 164.461 33.68C165.453 34.224 166.221 35 166.765 36.008C167.325 37 167.605 38.152 167.605 39.464ZM161.125 35.24C160.165 35.24 159.349 35.528 158.677 36.104C158.021 36.664 157.621 37.416 157.477 38.36H164.749C164.621 37.432 164.229 36.68 163.573 36.104C162.917 35.528 162.101 35.24 161.125 35.24Z" fill="#F5F6F8"/>
<path d="M174.182 34.856C175.046 33.512 176.566 32.84 178.742 32.84V35.696C178.486 35.648 178.254 35.624 178.046 35.624C176.878 35.624 175.966 35.968 175.31 36.656C174.654 37.328 174.326 38.304 174.326 39.584V45.8H171.326V32.984H174.182V34.856Z" fill="#F5F6F8"/>
</svg>
